name D:\school\WTK\thesis\model\3dpredictsim\Results\batch_windlass\Pog_s1_tmt_aCst_d00_k1000_WL30_ig24_pas.mot
datacolumns 128
datarows 4
range 0.55769984 0.59116183
endheader
time	pelvis_tilt	pelvis_list	pelvis_rotation	pelvis_tx	pelvis_ty	pelvis_tz	hip_flexion_l	hip_adduction_l	hip_rotation_l	hip_flexion_r	hip_adduction_r	hip_rotation_r	knee_angle_l	knee_angle_r	ankle_angle_l	ankle_angle_r	subtalar_angle_l	subtalar_angle_r	tmt_angle_l	tmt_angle_r	mtp_angle_l	mtp_angle_r	lumbar_extension	lumbar_bending	lumbar_rotation	arm_flex_l	arm_add_l	arm_rot_l	arm_flex_r	arm_add_r	arm_rot_r	elbow_flex_l	elbow_flex_r	pro_sup_l	pro_sup_r	glut_med1_l/activation	glut_med2_l/activation	glut_med3_l/activation	glut_min1_l/activation	glut_min2_l/activation	glut_min3_l/activation	semimem_l/activation	semiten_l/activation	bifemlh_l/activation	bifemsh_l/activation	sar_l/activation	add_long_l/activation	add_brev_l/activation	add_mag1_l/activation	add_mag2_l/activation	add_mag3_l/activation	tfl_l/activation	pect_l/activation	grac_l/activation	glut_max1_l/activation	glut_max2_l/activation	glut_max3_l/activation	iliacus_l/activation	psoas_l/activation	quad_fem_l/activation	gem_l/activation	peri_l/activation	rect_fem_l/activation	vas_med_l/activation	vas_int_l/activation	vas_lat_l/activation	med_gas_l/activation	lat_gas_l/activation	soleus_l/activation	tib_post_l/activation	flex_dig_l/activation	flex_hal_l/activation	tib_ant_l/activation	per_brev_l/activation	per_long_l/activation	per_tert_l/activation	ext_dig_l/activation	ext_hal_l/activation	ercspn_l/activation	intobl_l/activation	extobl_l/activation	glut_med1_r/activation	glut_med2_r/activation	glut_med3_r/activation	glut_min1_r/activation	glut_min2_r/activation	glut_min3_r/activation	semimem_r/activation	semiten_r/activation	bifemlh_r/activation	bifemsh_r/activation	sar_r/activation	add_long_r/activation	add_brev_r/activation	add_mag1_r/activation	add_mag2_r/activation	add_mag3_r/activation	tfl_r/activation	pect_r/activation	grac_r/activation	glut_max1_r/activation	glut_max2_r/activation	glut_max3_r/activation	iliacus_r/activation	psoas_r/activation	quad_fem_r/activation	gem_r/activation	peri_r/activation	rect_fem_r/activation	vas_med_r/activation	vas_int_r/activation	vas_lat_r/activation	med_gas_r/activation	lat_gas_r/activation	soleus_r/activation	tib_post_r/activation	flex_dig_r/activation	flex_hal_r/activation	tib_ant_r/activation	per_brev_r/activation	per_long_r/activation	per_tert_r/activation	ext_dig_r/activation	ext_hal_r/activation	ercspn_r/activation	intobl_r/activation	extobl_r/activation	
          0.55769984	         -2.92641142	          1.95372091	         -6.19063523	          0.69712480	          0.85807804	          0.00313723	         31.44840455	          2.56327717	         -3.67324164	        -17.89245071	         -1.69600325	          7.22777928	        -15.30807311	         -9.35000147	          6.28905329	          1.06885261	         -0.84065578	         12.72666005	         -0.67993300	         -8.73589082	          1.93105612	         28.52908810	         -1.61126189	         -0.42281712	          2.06102848	        -10.79002650	        -13.55632755	          5.92329900	          5.91818488	        -13.46535435	         16.18624518	         17.38673093	         39.85463593	         86.51662706	         86.51662706	          0.05929496	          0.05003915	          0.05000203	          0.05929189	          0.05015584	          0.05004024	          0.05929508	          0.05929317	          0.22712275	          0.05000032	          0.05000096	          0.11727601	          0.23075259	          0.11561642	          0.16377746	          0.11320394	          0.05000082	          0.05281378	          0.07313158	          0.05000216	          0.09865461	          0.12398227	          0.05812437	          0.05381479	          0.28072370	          0.07553956	          0.09347385	          0.05000022	          0.14674128	          0.15020558	          0.12558350	          0.05929498	          0.05929495	          0.05929499	          0.05000019	          0.05000104	          0.05004292	          0.56777729	          0.36449889	          0.19787007	          0.27716831	          0.60133226	          0.31488939	          0.05327113	          0.09438869	          0.09632609	          0.26230846	          0.08339039	          0.05000004	          0.28825500	          0.18170586	          0.08342077	          0.05000291	          0.05000029	          0.05000022	          0.06966265	          0.08241475	          0.14615111	          0.07334174	          0.05000215	          0.05000211	          0.05000075	          0.26936650	          0.09902667	          0.05000118	          0.05000164	          0.05000101	          0.05000067	          0.32785423	          0.53716610	          0.05000013	          0.05000036	          0.05000012	          0.24137243	          0.13907641	          0.06752063	          0.06251095	          0.26895493	          0.34793211	          0.22418579	          0.21386485	          0.20828792	          0.27747477	          0.05000001	          0.12889904	          0.17772106	          0.05000015	          0.05000003	          0.05000011	          0.05000004	          0.05000007	          0.05000017	
          0.56885384	         -2.91665767	          2.04639010	         -6.39768109	          0.71445947	          0.85729573	          0.00290070	         30.73798875	          2.99584130	         -3.47211288	        -17.60629280	         -1.99177837	          7.02834947	        -15.25286687	        -11.50888609	          5.89677858	         -0.10994607	         -1.30521534	         13.65725970	         -0.80619500	         -9.23732643	          2.29127819	         29.42475899	         -1.38242218	         -0.68284817	          2.14586796	        -11.90746857	        -13.53896357	          5.78636990	          5.60348485	        -13.48616357	         16.43702257	         17.28131998	         40.94164652	         86.51662706	         86.51662706	          0.05000003	          0.05000010	          0.10221546	          0.05000007	          0.05000008	          0.05000014	          0.05000011	          0.05000020	          0.19151938	          0.05000040	          0.05000923	          0.09889238	          0.23378314	          0.38133287	          0.25250058	          0.09545857	          0.05000026	          0.05000574	          0.07308998	          0.05929470	          0.10968566	          0.14363188	          0.05000015	          0.05929503	          0.58747614	          0.13907986	          0.11378534	          0.07031797	          0.23893429	          0.24785729	          0.20737394	          0.05000001	          0.05000002	          0.05000000	          0.05000011	          0.05515788	          0.05000041	          0.67444093	          0.31146989	          0.22279232	          0.54987909	          0.64523673	          0.36604556	          0.05000000	          0.07959246	          0.08122616	          0.22118943	          0.07031829	          0.05000492	          0.24306868	          0.15322199	          0.07034393	          0.05000239	          0.05000021	          0.05000027	          0.05874247	          0.06949567	          0.20332652	          0.21165657	          0.21158302	          0.07045635	          0.14104972	          0.22714121	          0.08350438	          0.05000083	          0.05000601	          0.05000458	          0.05002489	          0.27646032	          0.45314093	          0.05000103	          0.05929801	          0.05929524	          0.20353527	          0.11727696	          0.11729886	          0.11727638	          0.22679395	          0.29339079	          0.18904275	          0.18033976	          0.17563720	          0.23397834	          0.06846014	          0.10869309	          0.14986183	          0.05000017	          0.09411854	          0.05000064	          0.06246381	          0.07031798	          0.05096600	
          0.58000783	         -2.90189858	          2.15007365	         -6.57476168	          0.73198979	          0.85632033	          0.00268973	         29.87757279	          3.35826746	         -3.18931655	        -17.22376762	         -2.27598577	          6.81408030	        -15.64101372	        -13.85680760	          5.61911765	         -1.33571104	         -1.79109368	         14.50580275	         -0.99342141	         -9.54611752	          2.57834225	         29.68501742	         -1.14014352	         -0.96092052	          2.21682327	        -12.98948683	        -13.53466515	          5.75310802	          5.21873665	        -13.50503804	         16.60678939	         17.11910879	         42.00459296	         86.51662706	         86.51662706	          0.31500559	          0.29227715	          0.32464651	          0.21136016	          0.05001055	          0.25463511	          0.09220345	          0.05000075	          0.17203058	          0.05000009	          0.05000043	          0.08339043	          0.21130869	          0.32155586	          0.23299750	          0.15706070	          0.05000033	          0.07031804	          0.09870510	          0.05000020	          0.09249231	          0.14752014	          0.05000201	          0.05000039	          0.49538428	          0.11727802	          0.23865395	          0.05929504	          0.20147950	          0.20900431	          0.17486650	          0.05929499	          0.05929500	          0.05929499	          0.05389079	          0.05929504	          0.05929516	          0.56871733	          0.40791877	          0.18786830	          0.46368107	          0.63550231	          0.30866510	          0.05340818	          0.08211551	          0.06849328	          0.27508873	          0.05929535	          0.05000019	          0.20496578	          0.12920323	          0.05931699	          0.06565739	          0.05000053	          0.05000112	          0.05000006	          0.05860180	          0.17145359	          0.30579077	          0.17841585	          0.05941460	          0.11893969	          0.19153568	          0.07042501	          0.05000186	          0.05001415	          0.05013282	          0.05929487	          0.23312284	          0.40758964	          0.05266425	          0.05000320	          0.05000029	          0.17162939	          0.09889284	          0.09891130	          0.09889234	          0.19124206	          0.24739929	          0.15940869	          0.15207001	          0.14810471	          0.19730035	          0.17872966	          0.18124682	          0.18142521	          0.15003386	          0.21847214	          0.13831706	          0.07893630	          0.05929504	          0.05000010	
          0.59116183	         -2.88454114	          2.25316187	         -6.71810809	          0.74947049	          0.85516057	          0.00246806	         28.90149781	          3.68564003	         -2.88324968	        -16.71071104	         -2.53560628	          6.60062665	        -16.00454398	        -16.44893829	          5.42957378	         -2.49114372	         -2.29490936	         15.25334417	         -1.06081680	         -9.42192197	          2.87420971	         28.77604012	         -0.90851372	         -1.24067056	          2.27672383	        -13.98485400	        -13.54057497	          5.83569231	          4.80515017	        -13.53037382	         16.71797374	         16.87925794	         43.02611010	         86.51662706	         86.51662706	          0.40611992	          0.44260880	          0.49188938	          0.28561027	          0.26252099	          0.36187170	          0.07774998	          0.11900925	          0.14506335	          0.07344412	          0.05000098	          0.07031832	          0.17818430	          0.27114944	          0.23464412	          0.17744008	          0.05000026	          0.05929564	          0.12038567	          0.26932571	          0.20534309	          0.17855751	          0.05000014	          0.05000013	          0.41772862	          0.09889388	          0.26017469	          0.05000006	          0.16989626	          0.25636673	          0.15328035	          0.05000001	          0.05000003	          0.05000000	          0.05000000	          0.05000026	          0.05000022	          0.73616066	          0.34397454	          0.16373959	          0.69240702	          0.70822969	          0.52185806	          0.08524835	          0.07031826	          0.05775639	          0.23196638	          0.05000040	          0.05000006	          0.24272977	          0.10894968	          0.05001868	          0.09382833	          0.05000035	          0.05000027	          0.05000084	          0.05929751	          0.15866669	          0.25785557	          0.15044778	          0.05010114	          0.10029505	          0.23864912	          0.05938626	          0.05000104	          0.05000119	          0.05000064	          0.05000046	          0.19657895	          0.38358221	          0.05000008	          0.05000041	          0.05000018	          0.14472503	          0.08339056	          0.08340613	          0.08339013	          0.16126324	          0.20861736	          0.13442002	          0.12823221	          0.12488829	          0.16637229	          0.19225345	          0.15283564	          0.15298550	          0.19669266	          0.22421505	          0.11663488	          0.11266786	          0.05000004	          0.05000005	
